<?xml version="1.0" encoding="UTF-8"?>
<svg version="1.1" xmlns="http://www.w3.org/2000/svg" width="337" height="328">
<path d="M0 0 C1.26181091 -0.00960754 2.52362183 -0.01921509 3.82366943 -0.02911377 C5.20829081 -0.03396258 6.59291428 -0.0382412 7.97753906 -0.04199219 C9.39520266 -0.04774491 10.81286623 -0.05350263 12.23052979 -0.05926514 C15.20642459 -0.06977758 18.18229236 -0.0756181 21.15820312 -0.07910156 C24.9623958 -0.08457551 28.7662286 -0.10857851 32.57030869 -0.13707352 C35.50092593 -0.15574768 38.43145751 -0.16090811 41.36212921 -0.16243744 C42.7638978 -0.16545563 44.16566518 -0.17345595 45.56737518 -0.18662262 C47.53442747 -0.20377503 49.50162838 -0.19994483 51.46875 -0.1953125 C52.58634705 -0.19895813 53.70394409 -0.20260376 54.85540771 -0.20635986 C59.77544343 0.36987261 63.00191259 2.06271902 66.30566406 5.72363281 C68.53528262 8.94419295 69.11918969 10.56680054 69.14033508 14.42340088 C69.14749039 15.31779373 69.15464569 16.21218658 69.16201782 17.13368225 C69.16470673 18.11759445 69.16739563 19.10150665 69.17016602 20.11523438 C69.17673721 21.14952072 69.18330841 22.18380707 69.19007874 23.24943542 C69.20984266 26.68354356 69.22148141 30.11760791 69.23144531 33.55175781 C69.23552084 34.72291893 69.23959637 35.89408005 69.24379539 37.1007309 C69.26466961 43.29973679 69.27896533 49.49872045 69.28833008 55.69775391 C69.29939564 62.1049146 69.33379379 68.5117281 69.37350178 74.91876602 C69.39963282 79.84127453 69.40801883 84.7636999 69.41161156 89.68627167 C69.41648679 92.04817804 69.42812727 94.41008047 69.44664955 96.77191925 C69.47096484 100.07804448 69.47008944 103.38326608 69.46313477 106.68945312 C69.47594482 107.6652684 69.48875488 108.64108368 69.50195312 109.64646912 C69.45712512 115.49332207 68.77381186 118.64822101 64.99316406 123.16113281 C64.53941406 123.73863281 64.08566406 124.31613281 63.61816406 124.91113281 C59.30984794 128.22522214 54.30166575 128.40280097 49.06347656 128.35644531 C47.90090332 128.3514502 46.73833008 128.34645508 45.54052734 128.34130859 C44.08114746 128.32310059 42.62176758 128.30489258 41.11816406 128.28613281 C36.45691406 128.24488281 31.79566406 128.20363281 26.99316406 128.16113281 C26.99316406 118.59113281 26.99316406 109.02113281 26.99316406 99.16113281 C28.97316406 98.17113281 28.97316406 98.17113281 30.99316406 97.16113281 C31.2274472 92.37140071 31.2274472 92.37140071 28.99316406 88.16113281 C26.49316406 87.74446615 26.49316406 87.74446615 23.99316406 88.16113281 C21.58194547 90.11747257 21.58194547 90.11747257 21.86816406 93.78613281 C21.90941406 94.89988281 21.95066406 96.01363281 21.99316406 97.16113281 C23.31316406 97.82113281 24.63316406 98.48113281 25.99316406 99.16113281 C26.01782287 103.13044271 26.03600429 107.09972315 26.0480957 111.0690918 C26.05313463 112.42033667 26.05996583 113.77157607 26.06860352 115.12280273 C26.08068826 117.06133715 26.08586234 118.99991081 26.09082031 120.93847656 C26.09605713 122.10628662 26.10129395 123.27409668 26.10668945 124.47729492 C25.99316406 127.16113281 25.99316406 127.16113281 24.99316406 128.16113281 C20.82761065 128.42862849 16.65826974 128.43250352 12.48486328 128.45629883 C10.39710037 128.47339585 8.31097001 128.51724359 6.22363281 128.56152344 C-6.29789431 128.7083712 -6.29789431 128.7083712 -12.00683594 124.16113281 C-15.64245831 120.23848762 -17.1260965 117.26125605 -17.14727783 111.93719482 C-17.15298798 111.07652908 -17.15869812 110.21586334 -17.1645813 109.32911682 C-17.16569916 108.3877739 -17.16681702 107.44643097 -17.16796875 106.4765625 C-17.17293365 105.4827507 -17.17789856 104.4889389 -17.18301392 103.4650116 C-17.19764119 100.17100333 -17.20443893 96.87704325 -17.20996094 93.58300781 C-17.21571246 91.29477944 -17.22147019 89.00655109 -17.22723389 86.71832275 C-17.23774585 81.91654231 -17.24358707 77.11477862 -17.24707031 72.31298828 C-17.25255173 66.1649661 -17.27657161 60.01716576 -17.30504227 53.8692131 C-17.32368243 49.14053708 -17.32887502 44.41191431 -17.33040619 39.68320465 C-17.33343073 37.41703327 -17.34145253 35.15086279 -17.35459137 32.88472748 C-17.37167831 29.71074143 -17.36976479 26.53729486 -17.36328125 23.36328125 C-17.37249603 22.43003525 -17.38171082 21.49678925 -17.39120483 20.53526306 C-17.35197452 14.39309447 -16.69643823 9.21345501 -12.47167969 4.41894531 C-7.84117081 0.98455254 -5.74148352 0.03517799 0 0 Z M16.99316406 21.16113281 C15.26446628 24.61852839 15.50349511 28.38088849 15.99316406 32.16113281 C17.78710074 35.0314315 18.97579683 36.65244919 21.99316406 38.16113281 C25.84042762 38.76900045 29.43219428 39.01919125 32.91894531 37.10253906 C35.29103988 35.01351068 36.73410138 33.26862577 37.46191406 30.15722656 C37.66364284 25.72759876 36.79149191 22.55910234 33.99316406 19.16113281 C30.98313966 16.82000272 27.71574864 16.74896674 23.96191406 16.83300781 C20.84999802 17.35166049 19.14248537 18.94668056 16.99316406 21.16113281 Z M-4.00683594 26.16113281 C-4.42359113 29.11901851 -4.42359113 29.11901851 -4.00683594 32.16113281 C-3.51339691 32.63941528 -3.01995789 33.11769775 -2.51156616 33.61047363 C0.14854309 36.35177753 -0.58183933 40.25780205 -0.60839844 43.87988281 C-0.60552826 44.7341687 -0.60265808 45.58845459 -0.59970093 46.46862793 C-0.59766013 48.27417667 -0.60319111 50.0797475 -0.61572266 51.88525391 C-0.6317765 54.65089293 -0.61587494 57.41507056 -0.59667969 60.18066406 C-0.59866212 61.93457354 -0.60250579 63.68848211 -0.60839844 65.44238281 C-0.60232574 66.27056519 -0.59625305 67.09874756 -0.58999634 67.95202637 C-0.66202071 73.82350877 -0.66202071 73.82350877 -2.55062866 75.67272949 C-3.03117706 76.16390259 -3.51172546 76.65507568 -4.00683594 77.16113281 C-3.77206395 80.80655127 -3.77206395 80.80655127 -3.00683594 84.16113281 C1.08859187 85.30317234 1.08859187 85.30317234 4.93066406 84.03613281 C6.23049627 82.14679603 6.23049627 82.14679603 5.80566406 79.59863281 C5.14689374 77.01672009 5.14689374 77.01672009 2.99316406 75.16113281 C2.78075922 72.09948217 2.68921108 69.13061463 2.69238281 66.06738281 C2.68809769 65.16491821 2.68381256 64.26245361 2.67939758 63.3326416 C2.67364934 61.42277873 2.67315765 59.51289395 2.67749023 57.60302734 C2.68065148 54.67279948 2.65719307 51.74357957 2.63183594 48.81347656 C2.62956321 46.96061326 2.62885932 45.10774723 2.62988281 43.25488281 C2.62067307 42.37465454 2.61146332 41.49442627 2.60197449 40.58752441 C2.62084961 38.12011719 2.62084961 38.12011719 2.99316406 34.16113281 C3.98316406 33.50113281 4.97316406 32.84113281 5.99316406 32.16113281 C6.43411516 29.29495069 6.40818272 27.79458234 4.80566406 25.34863281 C1.43443952 23.13989949 -1.19978153 23.3540784 -4.00683594 26.16113281 Z M48.18066406 25.34863281 C46.73213071 27.15914488 46.73213071 27.15914488 47.18066406 29.72363281 C47.83943439 32.30554554 47.83943439 32.30554554 49.99316406 34.16113281 C50.205616 37.21118728 50.29711636 40.16807909 50.29394531 43.21972656 C50.29823044 44.11981949 50.30251556 45.01991241 50.30693054 45.94728088 C50.31267936 47.85294757 50.31317005 49.75863621 50.30883789 51.66430664 C50.30568038 54.58355091 50.3291214 57.50177975 50.35449219 60.42089844 C50.35676533 62.27050653 50.35746861 64.12011736 50.35644531 65.96972656 C50.36565506 66.84479355 50.37486481 67.71986053 50.38435364 68.6214447 C50.37812485 69.43561356 50.37189606 70.24978241 50.36547852 71.08862305 C50.36610794 71.8042894 50.36673737 72.51995575 50.36738586 73.25730896 C49.88910072 75.69054682 48.74813805 76.47730024 46.99316406 78.16113281 C47.2376953 81.50305974 47.59859964 82.76656839 49.99316406 85.16113281 C53.81881072 84.97356219 53.81881072 84.97356219 56.99316406 83.16113281 C57.03397189 81.16154918 57.03570763 79.16068027 56.99316406 77.16113281 C55.67316406 76.50113281 54.35316406 75.84113281 52.99316406 75.16113281 C53.32316406 61.30113281 53.65316406 47.44113281 53.99316406 33.16113281 C54.98316406 32.83113281 55.97316406 32.50113281 56.99316406 32.16113281 C57.24337976 29.24479152 57.24337976 29.24479152 56.99316406 26.16113281 C53.75110245 23.99975841 51.66118095 23.06829416 48.18066406 25.34863281 Z M13.99316406 46.16113281 C14.32316406 47.48113281 14.65316406 48.80113281 14.99316406 50.16113281 C22.25316406 50.16113281 29.51316406 50.16113281 36.99316406 50.16113281 C37.32316406 48.84113281 37.65316406 47.52113281 37.99316406 46.16113281 C30.07316406 46.16113281 22.15316406 46.16113281 13.99316406 46.16113281 Z M14.99316406 55.16113281 C14.99316406 56.48113281 14.99316406 57.80113281 14.99316406 59.16113281 C17.88906058 59.18819727 20.78470201 59.2080031 23.68066406 59.22363281 C24.49728516 59.23201172 25.31390625 59.24039063 26.15527344 59.24902344 C30.2381549 59.26555332 34.00968113 59.19148379 37.99316406 58.16113281 C37.99316406 57.17113281 37.99316406 56.18113281 37.99316406 55.16113281 C30.40316406 55.16113281 22.81316406 55.16113281 14.99316406 55.16113281 Z M13.99316406 64.16113281 C13.99316406 65.15113281 13.99316406 66.14113281 13.99316406 67.16113281 C20.47837398 70.40373777 30.96980276 68.03128377 37.99316406 67.16113281 C37.99316406 66.17113281 37.99316406 65.18113281 37.99316406 64.16113281 C30.07316406 64.16113281 22.15316406 64.16113281 13.99316406 64.16113281 Z M-0.00683594 93.16113281 C-0.66683594 94.48113281 -1.32683594 95.80113281 -2.00683594 97.16113281 C-0.02683594 98.15113281 -0.02683594 98.15113281 1.99316406 99.16113281 C2.65316406 97.84113281 3.31316406 96.52113281 3.99316406 95.16113281 C2.67316406 94.50113281 1.35316406 93.84113281 -0.00683594 93.16113281 Z M49.99316406 93.16113281 C49.66316406 94.81113281 49.33316406 96.46113281 48.99316406 98.16113281 C49.98316406 98.49113281 50.97316406 98.82113281 51.99316406 99.16113281 C52.65316406 98.83113281 53.31316406 98.50113281 53.99316406 98.16113281 C53.72640202 96.17621639 53.72640202 96.17621639 52.99316406 94.16113281 C52.00316406 93.83113281 51.01316406 93.50113281 49.99316406 93.16113281 Z M-9.00683594 102.16113281 C-9.33683594 103.48113281 -9.66683594 104.80113281 -10.00683594 106.16113281 C-8.52183594 107.15113281 -8.52183594 107.15113281 -7.00683594 108.16113281 C-6.01683594 107.17113281 -5.02683594 106.18113281 -4.00683594 105.16113281 C-4.66683594 104.17113281 -5.32683594 103.18113281 -6.00683594 102.16113281 C-6.99683594 102.16113281 -7.98683594 102.16113281 -9.00683594 102.16113281 Z M7.99316406 102.16113281 C7.66316406 103.81113281 7.33316406 105.46113281 6.99316406 107.16113281 C7.98316406 107.49113281 8.97316406 107.82113281 9.99316406 108.16113281 C10.65316406 107.83113281 11.31316406 107.50113281 11.99316406 107.16113281 C11.99316406 105.84113281 11.99316406 104.52113281 11.99316406 103.16113281 C10.67316406 102.83113281 9.35316406 102.50113281 7.99316406 102.16113281 Z M39.99316406 102.16113281 C39.66316406 103.48113281 39.33316406 104.80113281 38.99316406 106.16113281 C40.97316406 107.15113281 40.97316406 107.15113281 42.99316406 108.16113281 C43.65316406 106.84113281 44.31316406 105.52113281 44.99316406 104.16113281 C44.33316406 103.50113281 43.67316406 102.84113281 42.99316406 102.16113281 C42.00316406 102.16113281 41.01316406 102.16113281 39.99316406 102.16113281 Z M58.99316406 102.16113281 C58.66316406 103.48113281 58.33316406 104.80113281 57.99316406 106.16113281 C59.47816406 107.15113281 59.47816406 107.15113281 60.99316406 108.16113281 C61.65316406 107.83113281 62.31316406 107.50113281 62.99316406 107.16113281 C62.66316406 105.51113281 62.33316406 103.86113281 61.99316406 102.16113281 C61.00316406 102.16113281 60.01316406 102.16113281 58.99316406 102.16113281 Z M-0.00683594 103.16113281 C-0.00683594 104.48113281 -0.00683594 105.80113281 -0.00683594 107.16113281 C0.98316406 106.83113281 1.97316406 106.50113281 2.99316406 106.16113281 C2.66316406 105.17113281 2.33316406 104.18113281 1.99316406 103.16113281 C1.33316406 103.16113281 0.67316406 103.16113281 -0.00683594 103.16113281 Z M-0.00683594 111.16113281 C-0.66683594 112.48113281 -1.32683594 113.80113281 -2.00683594 115.16113281 C0.46816406 115.65613281 0.46816406 115.65613281 2.99316406 116.16113281 C2.99316406 114.84113281 2.99316406 113.52113281 2.99316406 112.16113281 C2.00316406 111.83113281 1.01316406 111.50113281 -0.00683594 111.16113281 Z M49.99316406 111.16113281 C49.00316406 112.64613281 49.00316406 112.64613281 47.99316406 114.16113281 C48.32316406 114.82113281 48.65316406 115.48113281 48.99316406 116.16113281 C50.64316406 116.16113281 52.29316406 116.16113281 53.99316406 116.16113281 C53.66316406 114.51113281 53.33316406 112.86113281 52.99316406 111.16113281 C52.00316406 111.16113281 51.01316406 111.16113281 49.99316406 111.16113281 Z " fill="#0F0F0F" transform="translate(142.0068359375,99.8388671875)"/>
<path d="M0 0 C4.36787565 1.18296632 4.36787565 1.18296632 6 3.8125 C6.42478586 7.89044425 6.31282587 9.34326119 4 12.8125 C-2.3 14.1625 -2.3 14.1625 -5 12.8125 C-12.45443652 11.37158978 -21.69618834 10.22034307 -28.42724609 14.27441406 C-32.87783689 17.96562099 -36.53534344 22.2795737 -40.18603516 26.74267578 C-42.66575141 29.57215551 -45.43224533 31.96474275 -48.30737305 34.38256836 C-50.09897156 35.85558351 -50.09897156 35.85558351 -52 37.8125 C-54.33837891 38.03955078 -54.33837891 38.03955078 -57.2265625 38.0078125 C-58.7734375 37.99814453 -58.7734375 37.99814453 -60.3515625 37.98828125 C-61.43179688 37.97152344 -62.51203125 37.95476562 -63.625 37.9375 C-64.71296875 37.92847656 -65.8009375 37.91945312 -66.921875 37.91015625 C-69.61480152 37.88653409 -72.30729255 37.85359556 -75 37.8125 C-75.09765625 31.66015625 -75.09765625 31.66015625 -75 29.8125 C-72.66504532 27.47754532 -66.03884436 28.40241957 -62.70117188 28.29492188 C-61.90646484 28.26076172 -61.11175781 28.22660156 -60.29296875 28.19140625 C-59.5661792 28.1663501 -58.83938965 28.14129395 -58.09057617 28.11547852 C-55.63624553 27.75978258 -54.07231372 27.18123528 -52 25.8125 C-51.2880953 24.50276189 -50.62274857 23.16690262 -50 21.8125 C-48.4753418 20.15258789 -48.4753418 20.15258789 -46.69921875 18.53515625 C-46.05146484 17.93896484 -45.40371094 17.34277344 -44.73632812 16.72851562 C-44.06021484 16.11685547 -43.38410156 15.50519531 -42.6875 14.875 C-41.35732924 13.65836466 -40.02788779 12.44093142 -38.69921875 11.22265625 C-38.05243164 10.64443115 -37.40564453 10.06620605 -36.73925781 9.47045898 C-34.80306833 7.71026035 -34.80306833 7.71026035 -32.77734375 4.9140625 C-28.26405118 1.49894098 -23.37819562 2.10871836 -17.875 2.125 C-15.70565138 2.10843036 -13.53634428 2.08405053 -11.3671875 2.05078125 C-10.40925293 2.05118408 -9.45131836 2.05158691 -8.46435547 2.05200195 C-4.92699425 1.70821838 -3.69304968 -0.2308156 0 0 Z " fill="#0D0D0D" transform="translate(290,109.1875)"/>
<path d="M0 0 C2.26771279 -0.06533188 4.53438241 -0.18447924 6.796875 -0.3515625 C29.33321236 -1.33948785 29.33321236 -1.33948785 36.62890625 5.2578125 C39.04723479 7.81415011 41.2814042 10.46207762 43.51220703 13.18261719 C48.28897721 18.92824358 48.28897721 18.92824358 55.11328125 21.4453125 C59.46248593 21.78259606 63.67019211 21.45206811 68 21 C69 22 69 22 69.09765625 23.84765625 C69.06510417 25.8984375 69.03255208 27.94921875 69 30 C50.4901543 32.71157093 50.4901543 32.71157093 43.29052734 28.36376953 C38.47078787 24.35250248 34.39862343 19.71470564 30.53613281 14.78759766 C28.38143776 12.28017916 26.73023354 11.07302335 23.41210938 10.74121094 C22.39955078 10.73895508 21.38699219 10.73669922 20.34375 10.734375 C19.23902344 10.73179688 18.13429688 10.72921875 16.99609375 10.7265625 C15.84238281 10.73429687 14.68867187 10.74203125 13.5 10.75 C12.34628906 10.74226563 11.19257812 10.73453125 10.00390625 10.7265625 C8.89917969 10.72914062 7.79445313 10.73171875 6.65625 10.734375 C5.13741211 10.73775879 5.13741211 10.73775879 3.58789062 10.74121094 C0.76272284 10.81935044 0.76272284 10.81935044 -2 13 C-5.07728941 12.80766941 -7.25518099 12.4717187 -9.875 10.8125 C-11.58558918 8.05655076 -11.45339217 6.17374516 -11 3 C-7.83316409 -1.94026401 -5.33791339 -0.81457415 0 0 Z " fill="#0E0E0E" transform="translate(52,117)"/>
<path d="M0 0 C1.24136719 0.01450195 1.24136719 0.01450195 2.5078125 0.02929688 C8.58129699 0.14379699 8.58129699 0.14379699 9.75 1.3125 C9.89115161 3.98308851 9.79247107 6.63682238 9.75 9.3125 C8.80640625 9.25707031 7.8628125 9.20164063 6.890625 9.14453125 C-0.79505829 9.1059485 -5.83100858 9.64841982 -11.5625 15.25 C-14.27000242 18.06272673 -16.86017712 20.80685603 -19.24511719 23.90039062 C-22.84969529 28.17371881 -25.46581378 30.93646589 -31.05297852 32.11401367 C-35.34173915 32.41364826 -39.5895697 32.1896961 -43.875 31.9375 C-45.37094347 31.88723526 -46.86705096 31.84162615 -48.36328125 31.80078125 C-51.99564803 31.69161555 -55.62174896 31.51970112 -59.25 31.3125 C-59.25 31.9725 -59.25 32.6325 -59.25 33.3125 C-63.01543923 34.36332025 -64.6259721 34.6516456 -68.125 32.75 C-70.25 30.3125 -70.25 30.3125 -70.8125 27.3125 C-70.12637987 23.65319266 -69.28247414 22.44342777 -66.25 20.3125 C-62.48094157 19.76093047 -61.49826674 20.14698884 -58.25 22.3125 C-49.27597502 24.19685681 -37.47369984 25.38981073 -29.34570312 20.6015625 C-24.21490944 16.39984823 -20.04848962 11.47261995 -15.89501953 6.32885742 C-10.96797906 0.28961324 -7.44352009 -0.26584 0 0 Z " fill="#0F0F0F" transform="translate(111.25,172.6875)"/>
<path d="M0 0 C7.92699463 0.26127822 11.96611364 3.79496322 17.30175781 9.33227539 C19.6812099 11.91498519 22.01532931 14.49964979 24.20385742 17.24755859 C26.97354887 20.46759765 29.01326973 22.68132992 33.22900391 23.67871094 C36.3956415 23.87421991 39.44646814 23.81475886 42.61376953 23.640625 C44.21381836 23.61162109 44.21381836 23.61162109 45.84619141 23.58203125 C51.60943188 23.46858591 51.60943188 23.46858591 57.09545898 21.90380859 C57.86462646 21.61070801 58.63379395 21.31760742 59.42626953 21.015625 C61.76797482 22.13325707 63.58951314 23.17886861 65.42626953 25.015625 C65.73876953 28.390625 65.73876953 28.390625 65.42626953 32.015625 C63.80126953 33.953125 63.80126953 33.953125 61.42626953 35.015625 C58.23876953 35.265625 58.23876953 35.265625 55.42626953 35.015625 C55.09626953 34.685625 54.76626953 34.355625 54.42626953 34.015625 C52.51996596 33.94274858 50.61125789 33.93130147 48.70361328 33.9453125 C47.52476562 33.935 46.34591797 33.9246875 45.13134766 33.9140625 C42.64700844 33.89860782 40.16240902 33.90590462 37.67822266 33.9375 C27.49074727 33.78272555 27.49074727 33.78272555 22.99267578 29.953125 C21.76506366 28.67685107 20.57522347 27.3631455 19.42626953 26.015625 C18.8473999 25.3673877 18.26853027 24.71915039 17.67211914 24.05126953 C16.51023555 22.74331779 15.35281696 21.43138571 14.19995117 20.11547852 C9.24780518 14.6016576 5.32096171 10.32349196 -2.33349609 9.61865234 C-5.45555804 9.56055119 -8.46639652 9.69305025 -11.57373047 10.015625 C-11.67138672 3.86328125 -11.67138672 3.86328125 -11.57373047 2.015625 C-9.09160681 -0.46649866 -3.39098788 0.10818705 0 0 Z " fill="#0E0E0E" transform="translate(226.57373046875,171.984375)"/>
<path d="M0 0 C1.05058594 0.05414063 2.10117188 0.10828125 3.18359375 0.1640625 C3.96863281 0.23367187 4.75367188 0.30328125 5.5625 0.375 C5.66015625 6.52734375 5.66015625 6.52734375 5.5625 8.375 C4.5625 9.375 4.5625 9.375 1.359375 9.6328125 C-3.77783331 10.63699931 -6.07537346 13.15746773 -9.71386719 16.76220703 C-10.23110352 17.27380371 -10.74833984 17.78540039 -11.28125 18.3125 C-11.79945312 18.83070313 -12.31765625 19.34890625 -12.8515625 19.8828125 C-14.38459632 21.32522363 -15.96286665 22.5651786 -17.65625 23.8125 C-23.33994741 28.37294176 -23.33994741 28.37294176 -25.921875 34.89257812 C-26.43205524 41.01048955 -26.37550889 47.29702035 -25.4375 53.375 C-25.1075 53.705 -24.7775 54.035 -24.4375 54.375 C-24.125 57.75 -24.125 57.75 -24.4375 61.375 C-26.67070602 64.03766871 -28.0575117 64.32847082 -31.5 64.75 C-34.4375 64.375 -34.4375 64.375 -36.3125 63.3125 C-38.03694167 60.34262823 -37.68590147 57.72841985 -37.4375 54.375 C-36.9425 53.88 -36.9425 53.88 -36.4375 53.375 C-36.54929511 51.77399533 -36.71183009 50.17650119 -36.89453125 48.58203125 C-37.53615255 39.55985971 -38.04970441 30.96341002 -32.08482361 23.56611633 C-27.20883439 18.07193704 -21.69081781 13.203134 -16.03637695 8.52832031 C-13.81195235 6.6852555 -11.72810561 4.76600485 -9.62890625 2.78515625 C-6.01959437 0.05939685 -4.44252832 -0.29949629 0 0 Z " fill="#0D0D0D" transform="translate(115.4375,190.625)"/>
<path d="M0 0 C0.33 0.33 0.66 0.66 1 1 C3.11089251 1.11865285 5.22573382 1.16743262 7.33984375 1.18945312 C8.33251755 1.20189308 8.33251755 1.20189308 9.34524536 1.21458435 C10.78630142 1.23201841 12.22738635 1.24717598 13.66848755 1.26036072 C15.94565378 1.28132507 18.22267466 1.308352 20.49975586 1.33703613 C25.33311526 1.39682705 30.16654144 1.44894655 35 1.5 C40.59862916 1.55913557 46.19718652 1.62135563 51.79568481 1.69187927 C54.04532592 1.71854642 56.29497388 1.73930499 58.54467773 1.7598877 C59.91650744 1.77648425 61.28833387 1.79335552 62.66015625 1.81054688 C63.86293213 1.82307495 65.06570801 1.83560303 66.30493164 1.84851074 C69 2 69 2 70 3 C70.14115161 5.67058851 70.04247107 8.32432238 70 11 C68.73212898 11.01213028 68.73212898 11.01213028 67.43864441 11.02450562 C59.47801294 11.10240451 51.51755168 11.18968085 43.5571394 11.28752708 C39.46447841 11.33750068 35.37184337 11.38383052 31.27905273 11.421875 C27.33023742 11.45871454 23.38163862 11.50507065 19.43300819 11.55806351 C17.92554835 11.57661459 16.41804209 11.59171993 14.91051292 11.60334396 C12.80103701 11.62019451 10.69205772 11.64922559 8.58276367 11.68115234 C6.78073738 11.70113785 6.78073738 11.70113785 4.94230652 11.7215271 C1.81159613 11.78338927 1.81159613 11.78338927 -1 14 C-4.07728941 13.80766941 -6.25518099 13.4717187 -8.875 11.8125 C-10.58558918 9.05655076 -10.45339217 7.17374516 -10 4 C-7.18331645 -0.11669134 -4.84699254 -0.53855473 0 0 Z " fill="#0E0E0E" transform="translate(51,154)"/>
<path d="M0 0 C2.90161446 0.05209362 3.81958643 0.08112608 6.1875 1.875 C7.52911569 5.3632008 7.05178615 7.73775344 6.125 11.3125 C2.66837669 13.61691554 1.17642119 13.57110135 -2.875 13.3125 C-3.865 12.8175 -3.865 12.8175 -4.875 12.3125 C-7.02911574 12.19172947 -9.18691961 12.13503978 -11.34423828 12.10717773 C-12.00777313 12.09727814 -12.67130798 12.08737854 -13.35494995 12.07717896 C-15.55170097 12.04555084 -17.74847363 12.02080146 -19.9453125 11.99609375 C-21.46703661 11.97552534 -22.988755 11.9545289 -24.51046753 11.93312073 C-28.5184465 11.87788829 -32.52647713 11.82848422 -36.5345459 11.78027344 C-40.62333787 11.73006695 -44.71205468 11.67437644 -48.80078125 11.61914062 C-56.82545732 11.51154472 -64.8501962 11.41010296 -72.875 11.3125 C-72.97265625 5.16015625 -72.97265625 5.16015625 -72.875 3.3125 C-71.03903061 1.47653061 -68.09064912 2.14909336 -65.62695312 2.12304688 C-64.97492416 2.11475357 -64.3228952 2.10646027 -63.65110779 2.09791565 C-62.23133302 2.08048199 -60.81152895 2.06532432 -59.39170837 2.05213928 C-57.14814595 2.03117427 -54.90473102 2.0041474 -52.66125488 1.97546387 C-47.08892083 1.90550017 -41.51648205 1.8461793 -35.94403076 1.78643799 C-31.23833541 1.73558675 -26.53271897 1.68078309 -21.82713318 1.62062073 C-19.61073114 1.59395431 -17.39432215 1.57319531 -15.17785645 1.5526123 C-13.82624967 1.5360157 -12.47464622 1.51914442 -11.12304688 1.50195312 C-9.3455304 1.48316101 -9.3455304 1.48316101 -7.53210449 1.46398926 C-4.12634231 1.26981685 -3.78006704 0.30484412 0 0 Z " fill="#0E0E0E" transform="translate(287.875,152.6875)"/>
<path d="M0 0 C2 2 2 2 2.25 4.9375 C2 8 2 8 0 11 C-0.05904207 13.31155741 -0.05904207 13.31155741 0.25390625 15.875 C0.83170742 25.38323963 1.12946855 33.17562478 -5.21875 40.8125 C-9.76379604 45.56986618 -14.59076448 50.22859643 -20 54 C-20.66 54 -21.32 54 -22 54 C-22 54.66 -22 55.32 -22 56 C-24.91605785 59.05761406 -26.52156348 59.95042109 -30.76953125 60.390625 C-32.11774585 60.36431837 -33.46569518 60.31701804 -34.8125 60.25 C-35.50537109 60.23195312 -36.19824219 60.21390625 -36.91210938 60.1953125 C-38.60867664 60.14851064 -40.30452476 60.07677624 -42 60 C-42 57.03 -42 54.06 -42 51 C-41.31035156 51.03222656 -40.62070313 51.06445312 -39.91015625 51.09765625 C-35.46266274 51.04274892 -32.19239 50.88669766 -28.546875 48.17578125 C-26.28504737 45.84673147 -24.1473429 43.43444186 -22 41 C-19.98069354 39.14956793 -17.91169765 37.3778565 -15.82421875 35.60546875 C-15.22222656 35.07566406 -14.62023437 34.54585937 -14 34 C-13.27167969 33.47019531 -12.54335937 32.94039062 -11.79296875 32.39453125 C-9.00030347 28.66489331 -9.49523075 25.02826387 -9.625 20.5 C-9.62693359 19.21802734 -9.62693359 19.21802734 -9.62890625 17.91015625 C-9.68968998 13.58100396 -10.02864987 10.87359936 -12 7 C-11.9375 3.9375 -11.9375 3.9375 -11 1 C-7.06889047 -2.59415729 -4.6708366 -2.17972374 0 0 Z " fill="#0D0D0D" transform="translate(257,70)"/>
<path d="M0 0 C5.71634939 0.05162827 8.28077205 1.47621348 12.421875 5.3671875 C14.34413933 7.3371392 16.18716475 9.36809399 18.0234375 11.41796875 C19.44107576 12.93831691 20.86733587 14.45018432 22.2947998 15.96130371 C23.64000073 17.39569977 24.96386675 18.85001002 26.28710938 20.3046875 C28.24003795 22.31092182 29.92957912 23.67420689 32.265625 25.1484375 C36.26846909 29.4859456 35.45634581 34.68045415 35.3984375 40.35546875 C35.40608298 42.61853061 35.42135187 44.88158332 35.4453125 47.14453125 C35.43516113 48.6442749 35.43516113 48.6442749 35.42480469 50.17431641 C35.46359218 52.97327872 35.46359218 52.97327872 37.6484375 55.73046875 C37.4609375 59.29296875 37.4609375 59.29296875 36.6484375 62.73046875 C33.17919869 65.04329462 31.72638175 65.15525461 27.6484375 64.73046875 C25.2494859 63.15874184 24.74243579 62.01246362 23.8359375 59.29296875 C23.6177004 56.31039499 24.32726498 55.34789174 25.6484375 52.73046875 C27.22062578 46.28720081 27.6118189 39.09697823 25.6484375 32.73046875 C21.80113388 26.88047541 16.22389116 22.62295497 10.72045898 18.40014648 C8.76216463 16.82211242 7.07952306 15.16947348 5.36328125 13.3359375 C2.72756675 10.80641006 1.87329469 9.99352395 -1.6640625 9.91796875 C-5.3515625 9.73046875 -5.3515625 9.73046875 -6.3515625 8.73046875 C-6.4765625 5.23046875 -6.4765625 5.23046875 -6.3515625 1.73046875 C-4.59290084 -0.02819291 -2.4029285 0.20395645 0 0 Z " fill="#0D0D0D" transform="translate(221.3515625,190.26953125)"/>
<path d="M0 0 C1.9375 1.125 1.9375 1.125 3 3 C3.25265405 6.09501208 3.39935013 8.20129973 2 11 C0.67280473 18.29588735 -0.62336681 27.71672744 3.39599609 34.27929688 C6.86681723 38.29240393 10.91829586 41.51322709 15.20385742 44.61645508 C17 46 17 46 19.625 48.82421875 C22.48301367 51.44249772 23.99300628 51.67444601 27.8125 51.8125 C28.78832031 51.86019531 29.76414063 51.90789062 30.76953125 51.95703125 C31.50558594 51.97121094 32.24164063 51.98539063 33 52 C33 54.97 33 57.94 33 61 C26.35320439 61.88024673 20.58305911 62.60783444 14.76416016 58.98583984 C11.7475514 56.18553732 9.01410755 53.28497908 6.3125 50.1875 C5.35857734 49.149527 4.40090556 48.11498661 3.43945312 47.08398438 C1.67913444 45.1952827 -0.04853302 43.29056991 -1.7644043 41.36010742 C-3.85332962 38.96924155 -3.85332962 38.96924155 -6.25634766 37.53881836 C-8 36 -8 36 -8.5300293 33.38037109 C-8.54461182 32.35508301 -8.55919434 31.32979492 -8.57421875 30.2734375 C-8.60193359 29.1596875 -8.62964844 28.0459375 -8.65820312 26.8984375 C-8.66787109 25.73570313 -8.67753906 24.57296875 -8.6875 23.375 C-8.72938161 21.07024247 -8.77475792 18.76554484 -8.82421875 16.4609375 C-8.83541748 15.43790527 -8.84661621 14.41487305 -8.8581543 13.36083984 C-8.73540676 11.04345141 -8.73540676 11.04345141 -10 10 C-10.45681382 3.83301344 -10.45681382 3.83301344 -8.9375 1.0625 C-5.88023824 -0.6140629 -3.4093712 -0.36528977 0 0 Z " fill="#0D0D0D" transform="translate(88,69)"/>
<path d="M0 0 C2.97 0 5.94 0 9 0 C9.01981934 1.30670654 9.03963867 2.61341309 9.06005859 3.9597168 C9.13621719 8.8147282 9.22491906 13.66944392 9.31738281 18.52416992 C9.35563014 20.62404537 9.3904904 22.72398538 9.421875 24.82397461 C9.4676175 27.84512381 9.52559723 30.86583016 9.5859375 33.88671875 C9.59748871 34.82335861 9.60903992 35.75999847 9.62094116 36.72502136 C9.72467916 41.32222346 10.06159197 44.76182891 12 49 C11.01952246 52.83277583 10.36116483 53.75922345 7 56 C3.90884073 55.80680255 1.75828632 55.52295608 -0.8125 53.75 C-2.35637024 51.47482281 -2.79477184 49.73637548 -3 47 C-2.34 46.01 -1.68 45.02 -1 44 C-0.6742279 41.92263083 -0.6742279 41.92263083 -0.68115234 39.62036133 C-0.66128265 38.73967484 -0.64141296 37.85898834 -0.62094116 36.95161438 C-0.60938995 36.00465195 -0.59783875 35.05768951 -0.5859375 34.08203125 C-0.56657135 33.10965012 -0.5472052 32.13726898 -0.5272522 31.13542175 C-0.4674445 28.02787056 -0.4210661 24.92028235 -0.375 21.8125 C-0.33682133 19.706364 -0.29776967 17.60024363 -0.2578125 15.49414062 C-0.16174189 10.32955395 -0.07771509 5.16489418 0 0 Z " fill="#101010" transform="translate(186,231)"/>
<path d="M0 0 C2.05078125 0.03255208 4.1015625 0.06510417 6.15234375 0.09765625 C6.17216309 1.37930664 6.19198242 2.66095703 6.21240234 3.98144531 C6.28848878 8.73766692 6.37720173 13.49358382 6.46972656 18.24951172 C6.5080037 20.30771874 6.54285879 22.36599237 6.57421875 24.42431641 C6.61989653 27.38338013 6.67788677 30.34198582 6.73828125 33.30078125 C6.74983246 34.22070862 6.76138367 35.14063599 6.77328491 36.08843994 C6.7931546 36.94903015 6.81302429 37.80962036 6.83349609 38.69628906 C6.84681976 39.451297 6.86014343 40.20630493 6.87387085 40.98419189 C7.1882378 43.37007343 8.06735973 44.96771326 9.15234375 47.09765625 C9.08984375 50.16015625 9.08984375 50.16015625 8.15234375 53.09765625 C5.96484375 55.09765625 5.96484375 55.09765625 3.15234375 56.09765625 C-0.37929921 55.33592934 -2.28637037 54.65894213 -4.84765625 52.09765625 C-5.18098958 46.76432292 -5.18098958 46.76432292 -3.84765625 44.09765625 C-3.73538938 42.71461847 -3.68118125 41.3266056 -3.65820312 39.93920898 C-3.6414856 39.0816954 -3.62476807 38.22418182 -3.60754395 37.34068298 C-3.59396851 36.4135701 -3.58039307 35.48645721 -3.56640625 34.53125 C-3.54799683 33.58202164 -3.5295874 32.63279327 -3.51062012 31.65480042 C-3.43174852 27.58158907 -3.36405386 23.50820897 -3.29541016 19.43481445 C-3.24381848 16.46687288 -3.18652269 13.49907971 -3.12890625 10.53125 C-3.11533081 9.60211288 -3.10175537 8.67297577 -3.08776855 7.71568298 C-3.07105103 6.86132156 -3.0543335 6.00696014 -3.03710938 5.12670898 C-3.0245813 4.37107162 -3.01205322 3.61543427 -2.99914551 2.8368988 C-2.78656315 0.39624859 -2.44614966 0.12928909 0 0 Z " fill="#0D0D0D" transform="translate(143.84765625,230.90234375)"/>
<path d="M0 0 C2.32505174 2.17004829 2.92767323 3.40692049 3.3125 6.5625 C3 9 3 9 1 12 C0.67539843 13.91448052 0.67539843 13.91448052 0.68115234 16.01245117 C0.66128265 16.81305466 0.64141296 17.61365814 0.62094116 18.43852234 C0.60361435 19.72772331 0.60361435 19.72772331 0.5859375 21.04296875 C0.56657135 21.9265657 0.5472052 22.81016266 0.5272522 23.72053528 C0.46747195 26.54275866 0.42107734 29.36502286 0.375 32.1875 C0.33681878 34.10092925 0.29776696 36.01434133 0.2578125 37.92773438 C0.16177168 42.61835021 0.0777349 47.30904652 0 52 C-2.97 52 -5.94 52 -9 52 C-9.02505615 50.7632251 -9.0501123 49.5264502 -9.07592773 48.25219727 C-9.16982253 43.68063287 -9.27008629 39.10922682 -9.37231445 34.5378418 C-9.41573144 32.55610854 -9.45740137 30.57433622 -9.49731445 28.5925293 C-9.55485383 25.7503683 -9.61859445 22.90840517 -9.68359375 20.06640625 C-9.70030624 19.17474258 -9.71701874 18.28307892 -9.73423767 17.36439514 C-9.436587 13.36051605 -9.436587 13.36051605 -11 10 C-11.47094801 3.64220183 -11.47094801 3.64220183 -9.625 1.125 C-6.09737898 -1.31719917 -4.15086173 -1.10124903 0 0 Z " fill="#0E0E0E" transform="translate(150,45)"/>
<path d="M0 0 C2 2.1875 2 2.1875 3 5 C2.69843994 5.8561792 2.39687988 6.7123584 2.08618164 7.59448242 C0.71041695 11.907933 0.66610844 15.80235595 0.62109375 20.30078125 C0.60409927 21.17776169 0.5871048 22.05474213 0.56959534 22.95829773 C0.51671032 25.74295987 0.47624925 28.52760813 0.4375 31.3125 C0.39359201 34.11517322 0.34698302 36.91773093 0.29469299 39.72026062 C0.26268943 41.46074192 0.23581388 43.20132626 0.21446228 44.94197083 C0.1118071 50.8881929 0.1118071 50.8881929 -1 52 C-3.67058851 52.14115161 -6.32432238 52.04247107 -9 52 C-9.01981934 50.77369873 -9.03963867 49.54739746 -9.06005859 48.28393555 C-9.13607619 43.73831492 -9.22479947 39.19301601 -9.31738281 34.64770508 C-9.35568847 32.67967069 -9.39053855 30.7115659 -9.421875 28.7434082 C-9.46749111 25.91592228 -9.52549098 23.08892166 -9.5859375 20.26171875 C-9.59748871 19.38037766 -9.60903992 18.49903656 -9.62094116 17.59098816 C-9.64081085 16.77036392 -9.66068054 15.94973969 -9.68115234 15.10424805 C-9.69447601 14.38254929 -9.70779968 13.66085052 -9.7215271 12.9172821 C-9.90726155 10.67398371 -9.90726155 10.67398371 -12 8 C-11.9375 5 -11.9375 5 -11 2 C-7.34071808 -1.24107827 -4.58935991 -1.5962991 0 0 Z " fill="#0E0E0E" transform="translate(195,45)"/>
<path d="M0 0 C1.9375 1.0625 1.9375 1.0625 3 3 C3.35594759 5.80165201 3.22711331 8.13837234 3 11 C2.34 11.66 1.68 12.32 1 13 C0.64681399 15.09627345 0.64681399 15.09627345 0.62109375 17.5 C0.58693359 18.386875 0.55277344 19.27375 0.51757812 20.1875 C0.49115234 21.115625 0.46472656 22.04375 0.4375 23 C0.37765768 24.83346686 0.31403881 26.66681553 0.24609375 28.5 C0.22216553 29.3146875 0.1982373 30.129375 0.17358398 30.96875 C0 33 0 33 -1 35 C-3.33294775 35.04241723 -5.66702567 35.04092937 -8 35 C-9 34 -9 34 -9.11352539 31.95874023 C-9.10828857 31.08419189 -9.10305176 30.20964355 -9.09765625 29.30859375 C-9.09282227 27.89223633 -9.09282227 27.89223633 -9.08789062 26.44726562 C-9.07951172 25.45404297 -9.07113281 24.46082031 -9.0625 23.4375 C-9.05798828 22.44041016 -9.05347656 21.44332031 -9.04882812 20.41601562 C-9.03700007 17.94395151 -9.02051849 15.47200482 -9 13 C-9.99 12.67 -10.98 12.34 -12 12 C-13.21019108 5.70700637 -13.21019108 5.70700637 -12.3125 2.6875 C-8.84502924 -1.7706767 -5.21701645 -1.23311298 0 0 Z " fill="#0E0E0E" transform="translate(173,251)"/>
<path d="M0 0 C2.33294775 -0.04241723 4.66702567 -0.04092937 7 0 C8.76076401 1.76076401 8.19238151 4.28922137 8.24609375 6.6796875 C8.29540039 8.41412109 8.29540039 8.41412109 8.34570312 10.18359375 C8.40670454 12.6366293 8.46402031 15.08975939 8.51757812 17.54296875 C8.56881836 19.28126953 8.56881836 19.28126953 8.62109375 21.0546875 C8.6461499 22.12187012 8.67120605 23.18905273 8.69702148 24.28857422 C8.81450139 27.21886111 8.81450139 27.21886111 11 30 C10.80766941 33.07728941 10.4717187 35.25518099 8.8125 37.875 C6.05655076 39.58558918 4.17374516 39.45339217 1 39 C-1.375 37.375 -1.375 37.375 -3 35 C-3.31452272 31.85477278 -3.42041821 29.84083641 -2 27 C-1.8583755 25.13844082 -1.77394683 23.27237255 -1.71875 21.40625 C-1.68136719 20.29378906 -1.64398438 19.18132812 -1.60546875 18.03515625 C-1.57066406 16.86855469 -1.53585938 15.70195312 -1.5 14.5 C-1.43131518 12.19778652 -1.35860367 9.89568851 -1.28125 7.59375 C-1.25095703 6.56958984 -1.22066406 5.54542969 -1.18945312 4.49023438 C-1 2 -1 2 0 0 Z " fill="#0D0D0D" transform="translate(102,220)"/>
<path d="M0 0 C2.33294775 -0.04241723 4.66702567 -0.04092937 7 0 C8.76076401 1.76076401 8.19238151 4.28922137 8.24609375 6.6796875 C8.29540039 8.41412109 8.29540039 8.41412109 8.34570312 10.18359375 C8.40670454 12.6366293 8.46402031 15.08975939 8.51757812 17.54296875 C8.56881836 19.28126953 8.56881836 19.28126953 8.62109375 21.0546875 C8.6461499 22.12187012 8.67120605 23.18905273 8.69702148 24.28857422 C8.81450139 27.21886111 8.81450139 27.21886111 11 30 C10.80766941 33.07728941 10.4717187 35.25518099 8.8125 37.875 C6.08827656 39.56589731 4.14066901 39.38457172 1 39 C-1.375 37.9375 -1.375 37.9375 -3 36 C-3.3125 32.375 -3.3125 32.375 -3 29 C-2.67 28.67 -2.34 28.34 -2 28 C-1.85405114 26.098339 -1.77265996 24.19164762 -1.71875 22.28515625 C-1.68136719 21.12435547 -1.64398438 19.96355469 -1.60546875 18.76757812 C-1.55326172 16.93356445 -1.55326172 16.93356445 -1.5 15.0625 C-1.43131998 12.65742737 -1.35860936 10.25246536 -1.28125 7.84765625 C-1.25095703 6.77523682 -1.22066406 5.70281738 -1.18945312 4.59790039 C-1 2 -1 2 0 0 Z " fill="#0E0E0E" transform="translate(227,220)"/>
<path d="M0 0 C1.134375 0.020625 2.26875 0.04125 3.4375 0.0625 C5.32654855 3.84059711 4.81235131 8.65873966 4.95507812 12.85351562 C5.13117909 16.7111236 5.25275205 18.78537807 7.4375 22.0625 C7.76311034 25.64421371 7.8648837 28.16024552 6.3125 31.4375 C3.68815402 33.71193318 1.88902438 33.99346951 -1.5625 34.0625 C-5.09156067 32.45838152 -6.39022908 31.32090638 -8.5625 28.0625 C-8.24324747 24.23146958 -7.71796298 22.29569447 -5.5625 19.0625 C-5.2148888 17.05295135 -5.2148888 17.05295135 -5.18359375 14.8671875 C-5.14943359 14.06925781 -5.11527344 13.27132812 -5.08007812 12.44921875 C-5.05365234 11.62035156 -5.02722656 10.79148437 -5 9.9375 C-4.64311713 0.0814582 -4.64311713 0.0814582 0 0 Z " fill="#0E0E0E" transform="translate(168.5625,43.9375)"/>
<path d="M0 0 C2.747029 1.6482174 2.96928541 2.88659229 3.8125 6 C4 9 4 9 2 12 C1.6491971 14.49908196 1.6491971 14.49908196 1.62109375 17.2890625 C1.58693359 18.31257813 1.55277344 19.33609375 1.51757812 20.390625 C1.49115234 21.45796875 1.46472656 22.5253125 1.4375 23.625 C1.37783964 25.74230826 1.3142564 27.8595109 1.24609375 29.9765625 C1.22216553 30.91580566 1.1982373 31.85504883 1.17358398 32.82275391 C1 35 1 35 0 36 C-2.9375 36.1875 -2.9375 36.1875 -6 36 C-8.51396226 33.48603774 -8.28181948 32.54388797 -8.37890625 29.0625 C-8.41306641 28.08539063 -8.44722656 27.10828125 -8.48242188 26.1015625 C-8.50884766 25.07804687 -8.53527344 24.05453125 -8.5625 23 C-8.62231417 20.9790447 -8.68592765 18.95819715 -8.75390625 16.9375 C-8.77783447 16.03902344 -8.8017627 15.14054687 -8.82641602 14.21484375 C-8.86352768 11.95964318 -8.86352768 11.95964318 -10 10 C-10.44948064 3.81964117 -10.44948064 3.81964117 -8.9375 1.0625 C-5.88023824 -0.6140629 -3.4093712 -0.36528977 0 0 Z " fill="#0E0E0E" transform="translate(234,67)"/>
<path d="M0 0 C2.4375 1.5625 2.4375 1.5625 4 4 C3.67857143 10.32142857 3.67857143 10.32142857 2 12 C1.85469013 13.69428307 1.77283477 15.39410742 1.71875 17.09375 C1.68136719 18.12371094 1.64398438 19.15367188 1.60546875 20.21484375 C1.57066406 21.29894531 1.53585938 22.38304688 1.5 23.5 C1.43143859 25.63556094 1.35874988 27.77099476 1.28125 29.90625 C1.23581055 31.33420898 1.23581055 31.33420898 1.18945312 32.79101562 C1 35 1 35 0 36 C-2.9375 36.1875 -2.9375 36.1875 -6 36 C-8.56006715 33.43993285 -8.28476023 32.36586023 -8.37890625 28.80859375 C-8.41306641 27.78185547 -8.44722656 26.75511719 -8.48242188 25.69726562 C-8.50884766 24.62154297 -8.53527344 23.54582031 -8.5625 22.4375 C-8.62216677 20.31107786 -8.6857513 18.18476076 -8.75390625 16.05859375 C-8.77783447 15.11298584 -8.8017627 14.16737793 -8.82641602 13.19311523 C-8.75932813 11.02430201 -8.75932813 11.02430201 -10 10 C-10.39588785 6.43700935 -10.42667508 4.62360205 -8.375 1.625 C-5.28813568 -0.48706506 -3.6717087 -0.61195145 0 0 Z " fill="#0F0F0F" transform="translate(109,67)"/>
<path d="M0 0 C0.66 0.33 1.32 0.66 2 1 C3.3734635 1.15004973 4.7528526 1.24838006 6.1328125 1.31640625 C6.93847656 1.35830078 7.74414062 1.40019531 8.57421875 1.44335938 C9.41597656 1.48267578 10.25773437 1.52199219 11.125 1.5625 C12.39923828 1.62727539 12.39923828 1.62727539 13.69921875 1.69335938 C15.79928223 1.79954236 17.89961948 1.90028497 20 2 C21.36623674 4.73247348 21.128426 6.98198902 21 10 C19.45429669 11.54570331 17.9306528 11.19824102 15.78125 11.28125 C14.93175781 11.31863281 14.08226562 11.35601562 13.20703125 11.39453125 C10.5 11.5 10.5 11.5 7.79296875 11.60546875 C6.94347656 11.64285156 6.09398437 11.68023437 5.21875 11.71875 C4.0421582 11.76418945 4.0421582 11.76418945 2.84179688 11.81054688 C0.98373804 11.80591468 0.98373804 11.80591468 0 13 C-6.25827815 13.5794702 -6.25827815 13.5794702 -9 11.4375 C-10.44746494 7.90930422 -9.99247239 5.63906544 -9 2 C-6.08130445 -1.33565206 -4.10224982 -1.29544731 0 0 Z " fill="#0D0D0D" transform="translate(274,131)"/>
<path d="M0 0 C3.1875 0.3125 3.1875 0.3125 5.5625 1.9375 C7.1875 4.3125 7.1875 4.3125 7.75 7.3125 C7.1875 10.3125 7.1875 10.3125 5.0625 12.75 C1.54601408 14.66113365 -0.03479562 14.42863993 -3.8125 13.3125 C-4.1425 12.9825 -4.4725 12.6525 -4.8125 12.3125 C-6.15265221 12.15667697 -7.50008903 12.06205858 -8.84765625 11.99609375 C-9.65654297 11.95419922 -10.46542969 11.91230469 -11.29882812 11.86914062 C-12.14896484 11.82982422 -12.99910156 11.79050781 -13.875 11.75 C-14.72900391 11.70681641 -15.58300781 11.66363281 -16.46289062 11.61914062 C-18.57922037 11.51273298 -20.69583813 11.41208269 -22.8125 11.3125 C-22.91015625 5.16015625 -22.91015625 5.16015625 -22.8125 3.3125 C-21.30187307 1.80187307 -19.91858711 2.11717543 -17.8125 2.03125 C-17.008125 1.99386719 -16.20375 1.95648438 -15.375 1.91796875 C-13.66666667 1.84765625 -11.95833333 1.77734375 -10.25 1.70703125 C-9.445625 1.66964844 -8.64125 1.63226563 -7.8125 1.59375 C-6.69875 1.54831055 -6.69875 1.54831055 -5.5625 1.50195312 C-3.11022135 1.23647207 -2.75675163 0.30630574 0 0 Z " fill="#0D0D0D" transform="translate(64.8125,135.6875)"/>
<path d="M0 0 C4.37627551 1.21045918 4.37627551 1.21045918 5.9375 3.8125 C6.375 7.3125 6.375 7.3125 5.9375 10.8125 C4.3125 12.75 4.3125 12.75 1.9375 13.8125 C-1.25 14.0625 -1.25 14.0625 -4.0625 13.8125 C-4.3925 13.4825 -4.7225 13.1525 -5.0625 12.8125 C-7.30871176 12.60081512 -9.56013282 12.44334291 -11.8125 12.3125 C-15.99135432 12.06771355 -19.97846027 11.74777627 -24.0625 10.8125 C-25.05685406 7.71895403 -24.94090996 5.90970845 -24.0625 2.8125 C-22.88171875 2.76351562 -21.7009375 2.71453125 -20.484375 2.6640625 C-18.92706063 2.58901121 -17.36977009 2.51346439 -15.8125 2.4375 C-15.03519531 2.4065625 -14.25789063 2.375625 -13.45703125 2.34375 C-8.69495502 2.09954096 -4.46868228 -0.27359279 0 0 Z " fill="#0D0D0D" transform="translate(66.0625,172.1875)"/>
<path d="M0 0 C2.875 0.8125 2.875 0.8125 4.875 1.8125 C8.53081171 2.07757396 12.18046633 2.25735799 15.84179688 2.41796875 C21.7743079 2.7118079 21.7743079 2.7118079 22.875 3.8125 C23.0625 6.75 23.0625 6.75 22.875 9.8125 C20.875 11.8125 20.875 11.8125 17.28515625 11.9375 C15.0986397 11.88931231 12.9141758 11.81167509 10.72851562 11.734375 C6.02057943 11.6306454 6.02057943 11.6306454 1.875 13.8125 C-4.57783019 13.35966981 -4.57783019 13.35966981 -7.125 10.8125 C-7.56022403 6.8954837 -7.67592928 4.66008351 -5.5 1.3125 C-3.125 -0.1875 -3.125 -0.1875 0 0 Z " fill="#0D0D0D" transform="translate(272.125,172.1875)"/>
<path d="M0 0 C1.32 0.33 2.64 0.66 4 1 C3.01 1 2.02 1 1 1 C1 15.19 1 29.38 1 44 C3.97 43.505 3.97 43.505 7 43 C7.33 28.81 7.66 14.62 8 0 C8.33 0 8.66 0 9 0 C9.01981934 1.30670654 9.03963867 2.61341309 9.06005859 3.9597168 C9.13621719 8.8147282 9.22491906 13.66944392 9.31738281 18.52416992 C9.35563014 20.62404537 9.3904904 22.72398538 9.421875 24.82397461 C9.4676175 27.84512381 9.52559723 30.86583016 9.5859375 33.88671875 C9.59748871 34.82335861 9.60903992 35.75999847 9.62094116 36.72502136 C9.72467916 41.32222346 10.06159197 44.76182891 12 49 C11.01952246 52.83277583 10.36116483 53.75922345 7 56 C3.90884073 55.80680255 1.75828632 55.52295608 -0.8125 53.75 C-2.35637024 51.47482281 -2.79477184 49.73637548 -3 47 C-2.34 46.01 -1.68 45.02 -1 44 C-0.6742279 41.92263083 -0.6742279 41.92263083 -0.68115234 39.62036133 C-0.66128265 38.73967484 -0.64141296 37.85898834 -0.62094116 36.95161438 C-0.60938995 36.00465195 -0.59783875 35.05768951 -0.5859375 34.08203125 C-0.56657135 33.10965012 -0.5472052 32.13726898 -0.5272522 31.13542175 C-0.4674445 28.02787056 -0.4210661 24.92028235 -0.375 21.8125 C-0.33682133 19.706364 -0.29776967 17.60024363 -0.2578125 15.49414062 C-0.16174189 10.32955395 -0.07771509 5.16489418 0 0 Z " fill="#0A0A0A" transform="translate(186,231)"/>
<path d="M0 0 C2.86801846 0.08864784 3.78417611 0.16414857 6.125 1.9375 C7.45524773 5.3961441 6.91857025 7.8190159 6.0625 11.375 C4.0625 13.375 4.0625 13.375 0.125 13.75 C-2.74301846 13.66135216 -3.65917611 13.58585143 -6 11.8125 C-7.33024773 8.3538559 -6.79357025 5.9309841 -5.9375 2.375 C-3.9375 0.375 -3.9375 0.375 0 0 Z " fill="#101010" transform="translate(209.9375,72.625)"/>
<path d="M0 0 C3.375 0.9375 3.375 0.9375 5.375 3.9375 C6.03454774 10.09327889 6.03454774 10.09327889 3.8125 12.9375 C0.32357191 14.36885511 -2.02255972 13.871466 -5.625 12.9375 C-7.95249345 9.44625983 -8.12799316 8.04527749 -7.625 3.9375 C-5.31085172 0.32742869 -4.32918251 -0.07464108 0 0 Z " fill="#0D0D0D" transform="translate(69.625,216.0625)"/>
<path d="M0 0 C1.9375 1.6875 1.9375 1.6875 3 4 C2.87230149 7.12861361 2.44822217 9.22806182 0.875 11.9375 C-2.26671287 13.71780396 -4.62772888 12.90328691 -8 12 C-10 10.3125 -10 10.3125 -11 8 C-10.92897215 4.5196355 -10.61415498 2.70514091 -8.3125 0.0625 C-5.10056066 -1.41325591 -3.33525198 -1.06444212 0 0 Z " fill="#0E0E0E" transform="translate(214,238)"/>
<path d="M0 0 C2.3989516 1.57172691 2.90600171 2.71800513 3.8125 5.4375 C4.0337486 8.46123084 3.88644674 9.62143671 2 12 C-0.8125 13.4375 -0.8125 13.4375 -4 14 C-6.8125 13.0625 -6.8125 13.0625 -9 11 C-10.0625 7.5625 -10.0625 7.5625 -10 4 C-7.33590339 -0.15599071 -4.77534506 -0.7112216 0 0 Z " fill="#0D0D0D" transform="translate(271,90)"/>
<path d="M0 0 C2.8125 0.9375 2.8125 0.9375 4.8125 3.9375 C5.27205739 7.53736622 5.22491898 9.29412639 3.25 12.375 C0.8125 13.9375 0.8125 13.9375 -2.8125 13.875 C-6.1875 12.9375 -6.1875 12.9375 -8.1875 9.9375 C-8.625 7 -8.625 7 -8.1875 3.9375 C-5.47122383 0.82177145 -4.16779324 -0.08172144 0 0 Z " fill="#0D0D0D" transform="translate(128.1875,237.0625)"/>
<path d="M0 0 C1.9375 1.0625 1.9375 1.0625 3 3 C3.36528977 6.4093712 3.6140629 8.88023824 1.9375 11.9375 C-1.11976176 13.6140629 -3.5906288 13.36528977 -7 13 C-8.9375 11.9375 -8.9375 11.9375 -10 10 C-10.36528977 6.5906288 -10.6140629 4.11976176 -8.9375 1.0625 C-5.88023824 -0.6140629 -3.4093712 -0.36528977 0 0 Z " fill="#0E0E0E" transform="translate(130,73)"/>
<path d="M0 0 C2.31282587 3.46923881 2.42478586 4.92205575 2 9 C0.875 10.875 0.875 10.875 -1 12 C-4.14924548 12.39365568 -6.11909116 12.52854531 -8.875 10.875 C-10.52854531 8.11909116 -10.39365568 6.14924548 -10 3 C-7.72386284 -1.01671263 -4.20715633 -0.45896251 0 0 Z " fill="#0E0E0E" transform="translate(172,231)"/>
<path d="M0 0 C1.875 1.125 1.875 1.125 3 3 C3.39310741 6.14485925 3.47555213 8.13281671 1.9375 10.9375 C-1.18348955 12.6490104 -3.64533884 11.79291991 -7 11 C-9 9 -9 9 -9.3125 6.0625 C-9 3 -9 3 -7.875 1.125 C-5.11909116 -0.52854531 -3.14924548 -0.39365568 0 0 Z " fill="#0D0D0D" transform="translate(171,84)"/>
<path d="M0 0 C3.5 0.25 3.5 0.25 5.5 2.25 C5.875 5.6875 5.875 5.6875 5.5 9.25 C3.8125 11.25 3.8125 11.25 1.5 12.25 C-1.33367793 12.11177181 -2.98596785 11.57555369 -5.375 10.0625 C-6.5 8.25 -6.5 8.25 -6.3125 5.1875 C-5.1349572 0.93022989 -4.44973638 0.31783831 0 0 Z " fill="#0E0E0E" transform="translate(168.5,121.75)"/>
<path d="M0 0 C3.63 0 7.26 0 11 0 C11.125 5.75 11.125 5.75 10 8 C7.87527424 8.05386629 5.75016348 8.09273071 3.625 8.125 C1.84996094 8.15980469 1.84996094 8.15980469 0.0390625 8.1953125 C-3 8 -3 8 -5 6 C-4.67 5.01 -4.34 4.02 -4 3 C-2.02 3.495 -2.02 3.495 0 4 C0 2.68 0 1.36 0 0 Z " fill="#0F0F0F" transform="translate(110,121)"/>
<path d="M0 0 C1.18802719 0.00222061 2.37605438 0.00444122 3.6000824 0.00672913 C4.58053528 0.00651009 4.58053528 0.00651009 5.58079529 0.00628662 C7.75058766 0.00698569 9.92029517 0.01477774 12.09007263 0.02259827 C13.59079949 0.02446247 15.09152696 0.02588636 16.59225464 0.02688599 C20.54934865 0.03071099 24.50640616 0.04054112 28.46348572 0.05158997 C32.49851488 0.06180446 36.53354991 0.06638369 40.56858826 0.07142639 C48.49113108 0.08216341 56.41364419 0.09923962 64.33616638 0.12025452 C64.33616638 0.45025452 64.33616638 0.78025452 64.33616638 1.12025452 C63.59780548 1.13056198 62.85944458 1.14086945 62.09870911 1.15148926 C55.12505293 1.24964982 48.15147326 1.35218987 41.17795372 1.45959377 C37.59318853 1.51465217 34.00841497 1.56804378 30.42356873 1.61756897 C26.96109433 1.66546587 23.49871277 1.71781585 20.03635025 1.77319527 C18.07890987 1.80335816 16.12140095 1.82896284 14.16389465 1.85449219 C12.96310272 1.87443741 11.76231079 1.89438263 10.52513123 1.91493225 C9.47256134 1.93047653 8.41999146 1.94602081 7.33552551 1.96203613 C4.27171429 2.12365441 1.35013819 2.55837082 -1.66383362 3.12025452 C-1.99383362 5.10025452 -2.32383362 7.08025452 -2.66383362 9.12025452 C-2.99383362 9.12025452 -3.32383362 9.12025452 -3.66383362 9.12025452 C-3.76148987 2.96791077 -3.76148987 2.96791077 -3.66383362 1.12025452 C-2.66383362 0.12025452 -2.66383362 0.12025452 0 0 Z " fill="#010101" transform="translate(218.66383361816406,154.87974548339844)"/>
<path d="M0 0 C0.79599609 0.01289063 1.59199219 0.02578125 2.41210938 0.0390625 C3.22873047 0.07257813 4.04535156 0.10609375 4.88671875 0.140625 C6.1406543 0.16769531 6.1406543 0.16769531 7.41992188 0.1953125 C9.47185103 0.24221374 11.52318631 0.31395089 13.57421875 0.390625 C13.57421875 0.720625 13.57421875 1.050625 13.57421875 1.390625 C12.54683594 1.35839844 11.51945312 1.32617188 10.4609375 1.29296875 C1.50145982 1.26368232 -3.98787417 2.25106657 -10.7421875 8.625 C-12.07056641 9.99398437 -12.07056641 9.99398437 -13.42578125 11.390625 C-14.53654369 12.48173677 -15.64994205 13.57017005 -16.765625 14.65625 C-19.69502571 17.52768885 -22.57045559 20.44560325 -25.42578125 23.390625 C-26.08578125 23.060625 -26.74578125 22.730625 -27.42578125 22.390625 C-24.53412277 19.46979412 -21.63672983 16.55471671 -18.73828125 13.640625 C-17.92166016 12.815625 -17.10503906 11.990625 -16.26367188 11.140625 C-15.06967773 9.94179687 -15.06967773 9.94179687 -13.8515625 8.71875 C-12.75968628 7.61901855 -12.75968628 7.61901855 -11.64575195 6.49707031 C-4.65728108 -0.13402248 -4.65728108 -0.13402248 0 0 Z " fill="#040404" transform="translate(106.42578125,172.609375)"/>
<path d="M0 0 C2.01822917 0.06510417 4.03645833 0.13020833 6.0546875 0.1953125 C6.7146875 1.5153125 7.3746875 2.8353125 8.0546875 4.1953125 C7.219375 3.7003125 7.219375 3.7003125 6.3671875 3.1953125 C3.68318566 2.03466305 1.94929312 1.81444334 -0.9453125 2.1953125 C-3.25203165 4.91080404 -3.25203165 4.91080404 -2.5703125 7.3828125 C-2.2609375 8.28 -2.2609375 8.28 -1.9453125 9.1953125 C-0.2953125 8.8653125 1.3546875 8.5353125 3.0546875 8.1953125 C3.3846875 8.8553125 3.7146875 9.5153125 4.0546875 10.1953125 C5.3746875 9.8653125 6.6946875 9.5353125 8.0546875 9.1953125 C7.3946875 10.5153125 6.7346875 11.8353125 6.0546875 13.1953125 C-1.30801618 13.67811274 -1.30801618 13.67811274 -4.0078125 11.6328125 C-5.33806023 8.1741684 -4.80138275 5.7512966 -3.9453125 2.1953125 C-1.9453125 0.1953125 -1.9453125 0.1953125 0 0 Z " fill="#0B0B0B" transform="translate(207.9453125,72.8046875)"/>
<path d="M0 0 C0.99 0.33 1.98 0.66 3 1 C2.24976562 1.67804688 1.49953125 2.35609375 0.7265625 3.0546875 C-0.30762471 3.99442528 -1.34145222 4.934559 -2.375 5.875 C-2.91576172 6.36516602 -3.45652344 6.85533203 -4.01367188 7.36035156 C-6.7194452 9.83297795 -9.36014082 12.3320117 -11.8828125 14.9921875 C-12.74648437 15.90226563 -13.61015625 16.81234375 -14.5 17.75 C-15.66015625 19.01070312 -15.66015625 19.01070312 -16.84375 20.296875 C-19 22 -19 22 -21.28125 21.765625 C-21.8484375 21.51296875 -22.415625 21.2603125 -23 21 C-22.278125 20.62875 -21.55625 20.2575 -20.8125 19.875 C-18.10186621 18.06791081 -16.4469186 16.21544383 -14.44921875 13.67578125 C-12.19007999 11.06346176 -9.56129104 8.91587305 -6.9375 6.6796875 C-4.49654333 4.56353555 -2.24804455 2.31829594 0 0 Z " fill="#040404" transform="translate(103,182)"/>
<path d="M0 0 C0.33 1.32 0.66 2.64 1 4 C0.34 4 -0.32 4 -1 4 C-1 4.66 -1 5.32 -1 6 C-4.46153846 9 -4.46153846 9 -7 9 C-7.33 9.99 -7.66 10.98 -8 12 C-10.13010877 14.63727752 -11.74520406 15.28864254 -15 16 C-10.30233025 10.33870569 -5.25276628 5.14771096 0 0 Z " fill="#050505" transform="translate(102,197)"/>
<path d="M0 0 C1.32 0.66 2.64 1.32 4 2 C3.79375 2.9075 3.5875 3.815 3.375 4.75 C2.9872755 8.11027897 3.19588033 9.24075815 5 12 C2.03 11.505 2.03 11.505 -1 11 C-0.67 9.68 -0.34 8.36 0 7 C-2.89186786 5.66695302 -2.89186786 5.66695302 -5.1875 6.9375 C-5.785625 7.288125 -6.38375 7.63875 -7 8 C-6.02133662 6.85373678 -5.04205413 5.70800212 -4.0625 4.5625 C-3.51722656 3.92441406 -2.97195312 3.28632813 -2.41015625 2.62890625 C-1.63204305 1.73008851 -0.84063472 0.84063472 0 0 Z M0 2 C0 3.32 0 4.64 0 6 C0.99 5.67 1.98 5.34 3 5 C2.67 4.01 2.34 3.02 2 2 C1.34 2 0.68 2 0 2 Z " fill="#040404" transform="translate(142,201)"/>
<path d="M0 0 C0.99 0.33 1.98 0.66 3 1 C2.2575 1.4125 1.515 1.825 0.75 2.25 C-1.91669563 3.94698813 -3.84983224 5.70154481 -6 8 C-6.66 8.66 -7.32 9.32 -8 10 C-8.68177998 12.65719837 -8.68177998 12.65719837 -9.125 15.625 C-9.29257813 16.62789062 -9.46015625 17.63078125 -9.6328125 18.6640625 C-9.75398438 19.43492188 -9.87515625 20.20578125 -10 21 C-10.33 21 -10.66 21 -11 21 C-11.30742993 15.15883137 -10.96207376 11.23299698 -8 6 C-5.61860623 3.54240163 -3.07703664 1.53851832 0 0 Z " fill="#060606" transform="translate(136,100)"/>
<path d="M0 0 C0.33 0 0.66 0 1 0 C1.33 7.26 1.66 14.52 2 22 C3.32 22 4.64 22 6 22 C6.66 21.34 7.32 20.68 8 20 C8 21.32 8 22.64 8 24 C5.125 24.125 5.125 24.125 2 24 C0 22 0 22 -0.22705078 19.75341797 C-0.21657715 18.84221191 -0.20610352 17.93100586 -0.1953125 16.9921875 C-0.18886719 16.00605469 -0.18242188 15.01992187 -0.17578125 14.00390625 C-0.15902344 12.97136719 -0.14226562 11.93882813 -0.125 10.875 C-0.11597656 9.83472656 -0.10695313 8.79445313 -0.09765625 7.72265625 C-0.07403747 5.14820908 -0.04110149 2.57421788 0 0 Z " fill="#020202" transform="translate(101,79)"/>
<path d="M0 0 C5.09210286 3.56320845 9.22660027 7.04741286 13 12 C8.35144312 10.36672326 8.35144312 10.36672326 6.5625 8.5 C4.3466963 6.37282845 1.90918593 5.84043149 -1 5 C-0.67 3.35 -0.34 1.7 0 0 Z " fill="#070707" transform="translate(91,103)"/>
<path d="M0 0 C2.31 0 4.62 0 7 0 C7.33 1.32 7.66 2.64 8 4 C7.01 3.34 6.02 2.68 5 2 C3.68 2.33 2.36 2.66 1 3 C0.67 8.61 0.34 14.22 0 20 C-0.33 20 -0.66 20 -1 20 C-1.02689449 17.04160645 -1.04678741 14.08345573 -1.0625 11.125 C-1.07087891 10.28324219 -1.07925781 9.44148437 -1.08789062 8.57421875 C-1.09111328 7.76855469 -1.09433594 6.96289062 -1.09765625 6.1328125 C-1.10289307 5.38918457 -1.10812988 4.64555664 -1.11352539 3.87939453 C-1 2 -1 2 0 0 Z " fill="#050505" transform="translate(227,220)"/>
<path d="M0 0 C2.01822917 0.06510417 4.03645833 0.13020833 6.0546875 0.1953125 C6.7146875 1.5153125 7.3746875 2.8353125 8.0546875 4.1953125 C7.219375 3.7003125 7.219375 3.7003125 6.3671875 3.1953125 C3.68318566 2.03466305 1.94929312 1.81444334 -0.9453125 2.1953125 C-3.23544903 5.6305173 -3.12374223 7.1806435 -2.9453125 11.1953125 C-3.6053125 10.5353125 -4.2653125 9.8753125 -4.9453125 9.1953125 C-4.31948182 0.43368291 -4.31948182 0.43368291 0 0 Z " fill="#050505" transform="translate(207.9453125,72.8046875)"/>
<path d="M0 0 C0.33 0.66 0.66 1.32 1 2 C0.2575 1.95875 -0.485 1.9175 -1.25 1.875 C-4.08758952 2.00398134 -5.58773938 2.57051222 -8 4 C-8 4.763125 -8 5.52625 -8 6.3125 C-8 8.20833333 -8 10.10416667 -8 12 C-10 10 -10 10 -10.3125 6.5625 C-10 3 -10 3 -8.9375 1.0625 C-5.98831309 -0.55479605 -3.29132441 -0.18630138 0 0 Z " fill="#080808" transform="translate(130,73)"/>
<path d="M0 0 C0.73605469 0.08378906 1.47210938 0.16757813 2.23046875 0.25390625 C3.20628906 0.35574219 4.18210938 0.45757812 5.1875 0.5625 C6.15042969 0.66691406 7.11335937 0.77132812 8.10546875 0.87890625 C10.94233377 0.99758751 13.25423671 0.67765639 16 0 C16 0.99 16 1.98 16 3 C14.08364783 3.05423638 12.16685075 3.09289963 10.25 3.125 C8.64898437 3.15980469 8.64898437 3.15980469 7.015625 3.1953125 C4.07529894 3.00487687 2.47638122 2.52670104 0 1 C0 0.67 0 0.34 0 0 Z " fill="#060606" transform="translate(133,225)"/>
<path d="M0 0 C1.32 1.65 2.64 3.3 4 5 C1.92989732 8.10515402 1.23688458 8.57196269 -2 10 C-3.11375 10.556875 -3.11375 10.556875 -4.25 11.125 C-4.8275 11.41375 -5.405 11.7025 -6 12 C-5.195625 11.13375 -4.39125 10.2675 -3.5625 9.375 C-1.03075864 6.37123907 -0.28342624 3.96796738 0 0 Z " fill="#060606" transform="translate(179,126)"/>
<path d="M0 0 C-2.91765 1.9451 -4.62537285 2.45276317 -8 3 C-8.33 5.31 -8.66 7.62 -9 10 C-9.66 9.34 -10.32 8.68 -11 8 C-10.85532052 4.60003226 -10.57183202 2.65654787 -8.3125 0.0625 C-5.21524075 -1.36056506 -3.24533993 -0.81133498 0 0 Z " fill="#040404" transform="translate(214,238)"/>
<path d="M0 0 C0.66 0.33 1.32 0.66 2 1 C1.01 1.66 0.02 2.32 -1 3 C-0.67 2.01 -0.34 1.02 0 0 Z M-2 3 C0.0625 5.25 0.0625 5.25 2 8 C1.75 10.3125 1.75 10.3125 1 12 C-0.5 10.875 -0.5 10.875 -2 9 C-2.1875 5.8125 -2.1875 5.8125 -2 3 Z " fill="#070707" transform="translate(43,117)"/>
<path d="M0 0 C2.4375 0.8125 2.4375 0.8125 5 2 C5.33 2.99 5.66 3.98 6 5 C6.66 5 7.32 5 8 5 C8.33 5.99 8.66 6.98 9 8 C4.7257442 6.4169423 2.73468206 3.49431596 0 0 Z " fill="#030303" transform="translate(245,196)"/>
<path d="M0 0 C3.21043882 1.38188453 5.04936365 2.92421903 7.25 5.625 C8.03117188 6.57246094 8.03117188 6.57246094 8.828125 7.5390625 C9.40820312 8.26222656 9.40820312 8.26222656 10 9 C6.59324436 7.36562896 3.83349184 5.52716839 1 3 C0.67 2.01 0.34 1.02 0 0 Z " fill="#030303" transform="translate(238,178)"/>
<path d="M0 0 C1.54542837 3.09085673 0.59315658 5.67832315 0 9 C-0.33 9.66 -0.66 10.32 -1 11 C-3 8 -3 8 -2.75 4.9375 C-2 2 -2 2 0 0 Z " fill="#070707" transform="translate(186,45)"/>
<path d="M0 0 C0.99 0 1.98 0 3 0 C3 0.66 3 1.32 3 2 C4.65 1.67 6.3 1.34 8 1 C8 1.66 8 2.32 8 3 C5.1875 3.6875 5.1875 3.6875 2 4 C0.125 2.5625 0.125 2.5625 -1 1 C-0.67 0.67 -0.34 0.34 0 0 Z " fill="#050505" transform="translate(44,203)"/>
<path d="M0 0 C0.66 0.66 1.32 1.32 2 2 C0.68 1.67 -0.64 1.34 -2 1 C-1.34 0.67 -0.68 0.34 0 0 Z " fill="#000000" transform="translate(194,97)"/>
<path d="" fill="#000000" transform="translate(0,0)"/>
<path d="" fill="#000000" transform="translate(0,0)"/>
<path d="" fill="#000000" transform="translate(0,0)"/>
</svg>
